<svg height="512pt" viewBox="0 0 512 512" width="512pt" xmlns="http://www.w3.org/2000/svg" xmlns:xlink="http://www.w3.org/1999/xlink"><linearGradient id="a" gradientUnits="userSpaceOnUse" x1="0" x2="512" y1="256" y2="256"><stop offset="0" stop-color="#00f38d"/><stop offset="1" stop-color="#009eff"/></linearGradient><path d="m512 256c0 141.386719-114.613281 256-256 256s-256-114.613281-256-256 114.613281-256 256-256 256 114.613281 256 256zm0 0" fill="url(#a)"/><g fill="#fff"><path d="m426.933594 247.003906c-11.722656-15.964844-23.796875-39.390625-31.515625-61.144531-9.585938-27.011719-8.316407-39.433594-7.050781-41.902344l23.386718-23.382812-21.214844-21.210938-23.480468 23.480469c-2.210938 1.367188-14.1875 3.082031-40.914063-6.105469-21.515625-7.394531-44.75-19.265625-60.632812-30.976562-10.933594-8.0625-24.402344-11.941407-37.949219-10.929688s-26.296875 6.859375-35.902344 16.464844c-1.210937 1.210937-2.351562 2.472656-3.4375 3.769531-9.378906 9.664063-14.546875 22.34375-14.542968 35.828125 0 6.765625 1.304687 13.332031 3.785156 19.417969-12.792969 1.746094-25.136719 7.515625-34.949219 17.320312l-15.804687 15.796876c-53.496094 53.457031-41.699219 123.835937-33.894532 170.410156 2.257813 13.472656 5.347656 31.925781 3.40625 36.441406-4.0625 7.742188-2.660156 17.070312 3.484375 23.214844l.191407.191406c6.230468 6.222656 15.625 7.699219 23.332031 3.695312 4.5625-1.984374 22.988281 1.050782 36.441406 3.269532 18.363281 3.03125 40.425781 6.671875 63.707031 6.671875 35.636719 0 74.117188-8.535157 106.46875-40.863281l15.796875-15.785157c9.652344-9.648437 15.671875-21.957031 17.410157-35.269531 5.679687 2.109375 11.742187 3.21875 17.980468 3.21875 11.484375 0 22.390625-3.738281 31.347656-10.625 3.152344-2.078125 6.144532-4.503906 8.917969-7.277344 19.96875-19.960937 22.335938-50.964844 5.632813-73.71875zm-26.84375 52.503906c-1.125 1.125-2.328125 2.121094-3.585938 3.003907 0 0-1.089844.621093-1.546875 1.011719-8.566406 5.160156-19.410156 5.125-27.945312-.101563-.417969-.359375-.835938-.722656-1.230469-1.117187-4.078125-4.074219-6.320312-9.492188-6.320312-15.257813 0-4.566406 1.429687-8.90625 4.046874-12.546875.546876-.480469 1.082032-.972656 1.613282-1.476562 7.570312 4.039062 15.9375 6.066406 24.3125 6.066406 6.140625 0 12.28125-1.101563 18.105468-3.277344 1.539063 8.394531-1.011718 17.261719-7.449218 23.695312zm-108.464844-98.972656c-3.867188 3.238282-8.699219 5.003906-13.804688 5.003906-5.765624 0-11.183593-2.242187-15.257812-6.316406-7.988281-7.988281-8.378906-20.722656-1.203125-29.191406 7.5625 4.035156 15.925781 6.0625 24.289063 6.066406 0 .09375-.003907.1875-.003907.28125 0 8.5625 2.074219 16.804688 5.980469 24.15625zm52.097656 50.929688c-.539062.5625-1.0625 1.136718-1.574218 1.722656-3.648438 2.636719-8.007813 4.082031-12.597657 4.082031-5.765625 0-11.183593-2.242187-15.261719-6.320312-7.941406-7.941407-8.375-20.582031-1.320312-29.050781 7.550781 4.023437 15.898438 6.039062 24.253906 6.039062.214844 0 .429688-.015625.640625-.015625.0625 8.335937 2.085938 16.355469 5.859375 23.542969zm29.699219-38.351563c.089844-.089843.183594-.171875.273437-.261719l-.019531-.019531c.027344-.03125.058594-.066406.089844-.101562 5.40625 12.59375 11.773437 25.066406 18.476563 36.171875-6.421876.835937-13.144532-1.1875-18.066407-6.105469-4.074219-4.078125-6.320312-9.496094-6.320312-15.261719 0-5.386718 1.980469-10.453125 5.566406-14.421875zm-21.199219-21.292969c-.089844.09375-.175781.195313-.269531.292969-8.445313 7.917969-21.742187 7.769531-29.988281-.472656-4.074219-4.078125-6.320313-9.496094-6.320313-15.261719 0-5.558594 2.105469-10.789062 5.914063-14.808594.195312-.1875.394531-.367187.582031-.554687l.414063-.429687c.636718-.648438 7.617187-7.519532 16.886718-9.023438 6.609375 1.367188 12.6875 2.136719 18.207032 2.289062.175781 3.914063.660156 8.109376 1.4375 12.574219l-.191407.015625c1.269531 13.546875-5.164062 23.300782-6.671875 25.378906zm-51.4375-51.878906-.035156-.035156c-.136719.140625-.265625.289062-.40625.429688-8.449219 7.855468-21.707031 7.6875-29.929688-.535157-5.128906-5.128906-7.113281-12.214843-5.988281-18.871093 11.367188 6.785156 24.105469 13.160156 36.902344 18.453124-.210937.214844-.398437.40625-.542969.558594zm-62.980468-34.597656c-5.402344 13.527344-4.851563 28.886719 1.636718 42.042969-8.554687 7.15625-21.371094 6.742187-29.417968-1.265625-.707032-.703125-1.339844-1.460938-1.933594-2.238282-2-3.792968-3.0625-8.039062-3.0625-12.445312 0-7.152344 2.785156-13.871094 7.84375-18.925781 6.753906-6.757813 16.179687-9.210938 24.933594-7.167969zm86.632812 244.113281-15.792969 15.78125c-42.589843 42.566407-101.253906 32.882813-144.085937 25.816407-14.039063-2.316407-25.847656-4.265626-35.785156-4.265626-.6875 0-1.363282.011719-2.03125.027344.28125-10.378906-1.816407-22.882812-4.339844-37.9375-7.191406-42.921875-17.042969-101.703125 25.515625-144.230468l15.804687-15.796876c12.1875-12.183593 32.023438-12.179687 44.214844 0l116.5 116.425782c5.90625 5.898437 9.15625 13.742187 9.15625 22.085937 0 8.347657-3.253906 16.195313-9.15625 22.09375zm0 0"/><path d="m165.964844 222.023438c-31.074219 31.054687-26.832032 73.984374-18.652344 122.796874l29.589844-4.960937c-8.398438-50.113281-9.003906-77.351563 10.269531-96.613281zm0 0"/></g></svg>